# xmcd CD database file
#
# Track frame offsets:
#	150
#	21556
#	46243
#	67088
#	83835
#	112263
#	127517
#	147675
#	167540
#	183046
#	204157
#	227406
#
# Disc length: 3387 seconds
#
# Revision: 0
# Processed by: cddbd v1.5.2PL0 Copyright (c) Steve Scherf et al.
# Submitted via: CDex 1.70beta2
#
DISCID=9d0d390c
DTITLE=鷲崎健 - What a Pastaful World
DYEAR=2015
DGENRE=Blues
TTITLE0=都市生活者のブルース
TTITLE1=奥さま、お手をどうぞ
TTITLE2=It's all right
TTITLE3=刹那
TTITLE4=冗談で死んだ友人の話
TTITLE5=FAITH
TTITLE6=What a Pastaful World ～なんてスパゲティ世界～
TTITLE7=Dear Birthday
TTITLE8=Love＆Blues
TTITLE9=うたにする
TTITLE10=Radio Prayer
TTITLE11=日々WALK
EXTD=YEAR: 2015
EXTT0=
EXTT1=
EXTT2=
EXTT3=
EXTT4=
EXTT5=
EXTT6=
EXTT7=
EXTT8=
EXTT9=
EXTT10=
EXTT11=
PLAYORDER=
